<svg xmlns="http://www.w3.org/2000/svg" version="1.1" xmlns:xlink="http://www.w3.org/1999/xlink" width="80" height="40"><svg width="80" height="40" viewBox="0 0 80 40" fill="none" xmlns="http://www.w3.org/2000/svg">
<path d="M20.3125 39.6875C9.47031 39.6875 0.625 30.8422 0.625 20C0.625 9.14375 9.45625 0.3125 20.3125 0.3125C28.5531 0.3125 33.5847 4.84062 37.4519 10.4206C36.2987 12.2769 35.3313 14.1106 34.375 15.8684C30.9241 10.1675 27.0569 5.9375 20.3125 5.9375C12.5556 5.9375 6.25 12.2431 6.25 20C6.25 27.7991 12.5134 34.0625 20.3125 34.0625C24.8603 34.0625 27.7516 32.4369 30.4206 29.6666C33.0897 26.8991 35.3425 22.8997 37.6263 18.6809C39.9128 14.4622 42.2303 10.0241 45.625 6.46625C49.0197 2.90844 53.6997 0.3125 59.6875 0.3125C70.5297 0.3125 79.375 9.15781 79.375 20C79.375 30.8562 70.5437 39.6875 59.6875 39.6875C51.4919 39.6875 46.4266 35.3028 42.5481 29.8438C43.7013 28.0194 44.7559 26.2325 45.7122 24.4831C49.1406 30.0209 52.9656 34.0625 59.6875 34.0625C67.4444 34.0625 73.75 27.7569 73.75 20C73.75 12.2009 67.4866 5.9375 59.6875 5.9375C55.2156 5.9375 52.4031 7.56312 49.7566 10.3334C47.1072 13.1009 44.8459 17.1003 42.5481 21.3191C40.2531 25.5378 37.8906 29.9759 34.4622 33.5366C31.0338 37.0944 26.3538 39.6875 20.3125 39.6875Z" fill="#333333"></path>
</svg><style>@media (prefers-color-scheme: light) { :root { filter: none; } }
@media (prefers-color-scheme: dark) { :root { filter: none; } }
</style></svg>