<svg width="79" height="40" viewBox="0 0 79 40" fill="none" xmlns="http://www.w3.org/2000/svg">
<path d="M19.6875 39.375C8.84531 39.375 0 30.5297 0 19.6875C0 8.83125 8.83125 0 19.6875 0C27.9281 0 32.9597 4.52812 36.8269 10.1081C35.6737 11.9644 34.7063 13.7981 33.75 15.5559C30.2991 9.855 26.4319 5.625 19.6875 5.625C11.9306 5.625 5.625 11.9306 5.625 19.6875C5.625 27.4866 11.8884 33.75 19.6875 33.75C24.2353 33.75 27.1266 32.1244 29.7956 29.3541C32.4647 26.5866 34.7175 22.5872 37.0013 18.3684C39.2878 14.1497 41.6053 9.71156 45 6.15375C48.3947 2.59594 53.0747 0 59.0625 0C69.9047 0 78.75 8.84531 78.75 19.6875C78.75 30.5437 69.9187 39.375 59.0625 39.375C50.8669 39.375 45.8016 34.9903 41.9231 29.5312C43.0763 27.7069 44.1309 25.92 45.0872 24.1706C48.5156 29.7084 52.3406 33.75 59.0625 33.75C66.8194 33.75 73.125 27.4444 73.125 19.6875C73.125 11.8884 66.8616 5.625 59.0625 5.625C54.5906 5.625 51.7781 7.25062 49.1316 10.0209C46.4822 12.7884 44.2209 16.7878 41.9231 21.0066C39.6281 25.2253 37.2656 29.6634 33.8372 33.2241C30.4088 36.7819 25.7288 39.375 19.6875 39.375Z" fill="#EFEFEF"/>
</svg>
